<svg width="276" height="119" viewBox="0 0 276 119" fill="none" xmlns="http://www.w3.org/2000/svg">
<g clip-path="url(#clip0_116_12)">
<path d="M49.8513 0.980942C28.1608 0.98116 10.5773 15.0794 10.5773 32.4704C13.0294 44.2579 25.5074 55.4591 30.8223 60.0064C25.1947 68.9802 11.2544 76.4051 10.5773 87.5105C10.5773 104.901 28.1608 119 49.8513 119C71.5432 119.001 89.1288 104.903 89.1288 87.5105H143.289H197.448C197.448 104.903 215.034 119.001 236.726 119C258.417 119 276 104.901 276 87.5105C275.323 76.4051 261.383 68.9802 255.755 60.0064C261.07 55.4591 273.548 44.2579 276 32.4704C276 15.0794 258.417 0.98116 236.726 0.980942C215.034 0.979627 197.448 15.0783 197.448 32.4704H143.289H89.1288C89.1288 15.0783 71.5432 0.979627 49.8513 0.980942Z" fill="#FFDCDC"/>
<path d="M47.9588 3.98539C24.4885 3.61895 4.23328 28.1603 20.4008 44.5889C24.5344 50.0786 29.7608 54.9182 35.1827 59.5319C28.483 71.782 8.09109 80.3513 15.7206 95.9677C23.5814 118.723 64.3565 123.047 79.5249 103.403C84.2844 97.9867 85.9589 91.1628 85.667 84.547C124.078 84.547 162.49 84.547 200.901 84.547C197.761 106.759 229.235 123.154 252.269 113.2C269.476 107.451 279.915 86.5394 264.955 74.7991C260.772 69.7209 251.733 64.268 252.618 58.4578C263.845 48.6179 278.782 34.5604 268.984 20.199C257.311 -1.21571 216.169 -1.27648 204.473 20.1787C199.967 28.4533 203.945 39.4472 188.579 35.4344C154.275 35.4344 119.971 35.4344 85.667 35.4344C87.5918 17.7494 68.859 2.72643 47.9588 3.98539Z" fill="#E0C0A7"/>
<path d="M39.274 -1.51669e-05C17.5835 0.000202666 0 14.0985 0 31.4895C2.45217 43.2769 14.9301 54.4781 20.245 59.0254C14.6175 67.9993 0.677123 75.4241 0 86.5295C0 103.921 17.5835 118.019 39.274 118.019C60.9659 118.02 78.5515 103.922 78.5515 86.5295H132.711H186.871C186.871 103.922 204.457 118.02 226.149 118.019C247.839 118.019 265.423 103.921 265.423 86.5295C264.746 75.4241 250.805 67.9993 245.178 59.0254C250.493 54.4781 262.971 43.2769 265.423 31.4895C265.423 14.0985 247.839 0.000202666 226.149 -1.51669e-05C204.457 -0.00132958 186.871 14.0974 186.871 31.4895H132.711H78.5515C78.5515 14.0974 60.9659 -0.00132958 39.274 -1.51669e-05Z" fill="#E0C0A7"/>
<path d="M38.4599 5.61196C16.8396 4.19584 -1.70361 28.2258 13.2922 42.8813C18.5122 48.6512 25.0487 54.595 28.5522 60.9009C18.4056 70.2758 2.53382 82.2 9.3049 96.3063C18.8467 116.9 61.5338 117.323 69.2881 95.3918C69.1654 88.0536 74.5409 77.7824 85.3482 80.6642C121.329 81.2571 158.126 78.7414 193.335 82.631C188.911 106.538 231.476 122.73 250.135 104.185C263.164 94.3224 257.823 75.4767 243.539 68.536C235.963 59.9807 242.941 49.1075 252.12 44.0187C264.682 30.377 253.44 7.52292 232.523 6.32394C214.062 3.26418 192.732 15.3931 193.862 31.8802C188.388 41.9178 173.542 36.016 163.792 37.2906C133.224 37.3257 102.382 38.5716 72.0976 35.6196C73.7869 20.0574 57.2472 5.07486 38.4599 5.61196Z" fill="#FFF0B2"/>
<path d="M37.4899 11.302C18.8667 10.6725 6.83245 33.5423 22.5937 43.3849C29.4705 49.4072 39.5041 59.9442 30.5024 67.745C20.5037 75.1437 8.26736 89.5715 20.0371 99.5855C31.5412 109.654 57.8031 107.989 62.0583 93.0416C62.1923 81.2629 76.5082 70.8302 90.5031 74.7796C127.46 75.0469 164.672 72.8847 201.39 77.4589C190.479 98.1311 229.214 116.354 245.781 99.8026C256.263 89.8239 246.779 75.8126 235.862 69.4274C227.586 57.2039 239.907 44.7686 249.297 36.1897C255.359 22.3346 236.782 6.60294 220.031 12.4048C207.854 14.7423 199.342 24.9624 200.357 35.0176C190.918 47.8502 170.985 42.5266 156.359 43.091C125.842 43.5145 95.007 44.7676 64.8193 40.1288C68.7547 25.9625 55.2181 10.8778 37.4899 11.302Z" fill="#FFF0C2"/>
<path d="M86.042 49.9277V49.0146H91.3916C93.8408 49.0146 95.5488 49.1686 96.5156 49.4766C97.9408 49.9277 99.0973 50.7692 99.9854 52.001C100.966 53.3617 101.457 54.9264 101.457 56.6953C101.457 57.8984 101.214 59.0192 100.727 60.0576C100.247 61.0889 99.613 61.9196 98.8252 62.5498C98.1735 63.0798 97.3893 63.4557 96.4727 63.6777C95.556 63.8926 94.6322 64 93.7012 64H86.042V63.0977H86.665L86.8691 63.1084C87.1341 63.1084 87.349 63.0547 87.5137 62.9473C87.6855 62.8398 87.8073 62.6966 87.8789 62.5176C87.929 62.3815 87.9541 62.0664 87.9541 61.5723V51.5498C87.9541 50.984 87.9183 50.6188 87.8467 50.4541C87.7464 50.2321 87.5853 50.0781 87.3633 49.9922C87.2344 49.9492 86.7939 49.9277 86.042 49.9277ZM89.9521 62.8398H93.1963C93.5186 62.8398 94.0521 62.7826 94.7969 62.668C95.5488 62.5534 96.0859 62.4137 96.4082 62.249C96.8809 62.0055 97.3392 61.6152 97.7832 61.0781C98.2272 60.5339 98.5674 59.8857 98.8037 59.1338C99.0472 58.3747 99.1689 57.5081 99.1689 56.5342C99.1689 55.5674 99.0472 54.7295 98.8037 54.0205C98.5674 53.3115 98.2057 52.6742 97.7188 52.1084C97.2389 51.5426 96.7018 51.113 96.1074 50.8193C95.5202 50.5186 94.8613 50.3288 94.1309 50.25C93.737 50.2142 93.0781 50.1963 92.1543 50.1963H89.9521V62.8398ZM111.608 48.7568C112.976 48.7568 114.212 49.0863 115.314 49.7451C116.51 50.4541 117.427 51.3743 118.064 52.5059C118.709 53.6374 119.031 54.9479 119.031 56.4375C119.031 58.7435 118.315 60.6234 116.883 62.0771C115.451 63.5309 113.624 64.2578 111.404 64.2578C108.926 64.2578 106.964 63.3841 105.518 61.6367C104.336 60.2116 103.745 58.5072 103.745 56.5234C103.745 55.0482 104.078 53.7269 104.744 52.5596C105.41 51.3851 106.355 50.4577 107.58 49.7773C108.805 49.097 110.147 48.7568 111.608 48.7568ZM111.608 49.917C110.491 49.917 109.532 50.1748 108.729 50.6904C107.927 51.1989 107.283 51.9508 106.796 52.9463C106.316 53.9417 106.076 55.1699 106.076 56.6309C106.076 58.0273 106.312 59.2126 106.785 60.1865C107.265 61.1533 107.906 61.8945 108.708 62.4102C109.51 62.9258 110.412 63.1836 111.415 63.1836C112.41 63.1836 113.291 62.9329 114.058 62.4316C114.824 61.9232 115.458 61.1283 115.959 60.0469C116.46 58.9583 116.711 57.7516 116.711 56.4268C116.711 55.0804 116.46 53.8486 115.959 52.7314C115.529 51.7718 114.96 51.0628 114.251 50.6045C113.542 50.1462 112.661 49.917 111.608 49.917ZM121.137 49.0146H125.734L132.556 60.251V51.7002C132.556 51.1917 132.506 50.8265 132.405 50.6045C132.305 50.3825 132.155 50.2142 131.954 50.0996C131.754 49.985 131.456 49.9277 131.062 49.9277H130.676V49.0146H135.692V49.9277H135.424C134.98 49.9277 134.679 49.9635 134.521 50.0352C134.299 50.1354 134.131 50.318 134.017 50.583C133.909 50.848 133.855 51.2204 133.855 51.7002V64H132.556L124.338 50.4971V61.1963C124.338 61.7907 124.356 62.1523 124.392 62.2812C124.442 62.446 124.531 62.5964 124.66 62.7324C124.796 62.8685 124.954 62.9616 125.133 63.0117C125.312 63.0618 125.674 63.0905 126.218 63.0977V64H121.137V63.0977H121.405C121.921 63.0977 122.268 63.0475 122.447 62.9473C122.633 62.847 122.777 62.6751 122.877 62.4316C122.977 62.1882 123.027 61.7764 123.027 61.1963V51.7002C123.027 51.1058 123.013 50.7441 122.984 50.6152C122.92 50.3717 122.795 50.1963 122.608 50.0889C122.429 49.9814 122.068 49.9277 121.523 49.9277H121.137V49.0146ZM143.094 49.0146H144.866L149.518 61.54C149.747 62.1702 149.976 62.5892 150.205 62.7969C150.441 62.9974 150.757 63.0977 151.15 63.0977H151.387V64H146.048V63.0977C146.22 63.0833 146.388 63.0762 146.553 63.0762C146.896 63.0762 147.122 63.0404 147.229 62.9688C147.437 62.8327 147.541 62.6608 147.541 62.4531C147.541 62.3027 147.441 61.9339 147.24 61.3467L146.252 58.4463H140.816L139.656 61.6904C139.535 62.027 139.474 62.2598 139.474 62.3887C139.474 62.5319 139.509 62.6572 139.581 62.7646C139.66 62.8721 139.764 62.9544 139.893 63.0117C140.021 63.0618 140.229 63.0869 140.516 63.0869C140.709 63.0869 140.867 63.0905 140.988 63.0977V64H136.509V63.0977C136.924 63.0977 137.221 63.0583 137.4 62.9795C137.587 62.8936 137.748 62.7611 137.884 62.582C138.02 62.3958 138.199 62.0091 138.421 61.4219L143.094 49.0146ZM141.214 57.3936H145.844L143.523 50.9482L141.214 57.3936ZM152.794 48.5098H153.546L153.653 49.0146H162.849L162.935 48.5098H163.719L165.298 52.9141L164.331 53.2578C163.866 52.0833 163.314 51.2598 162.677 50.7871C162.039 50.3073 161.223 50.0674 160.228 50.0674C159.812 50.0674 159.565 50.0853 159.486 50.1211C159.408 50.1497 159.35 50.2035 159.314 50.2822C159.286 50.361 159.271 50.6117 159.271 51.0342V61.4326C159.271 61.9268 159.297 62.2598 159.347 62.4316C159.404 62.6035 159.483 62.736 159.583 62.8291C159.683 62.9222 159.819 62.9902 159.991 63.0332C160.17 63.069 160.564 63.0905 161.173 63.0977V64H155.394V63.0977C156.031 63.0905 156.421 63.069 156.564 63.0332C156.815 62.9616 156.994 62.8255 157.102 62.625C157.209 62.4245 157.263 62.0557 157.263 61.5186V50.8945C157.263 50.5651 157.245 50.3646 157.209 50.293C157.18 50.2214 157.119 50.1676 157.026 50.1318C156.94 50.0889 156.758 50.0674 156.479 50.0674C155.698 50.0674 155.071 50.1676 154.599 50.3682C154.133 50.5687 153.693 50.9089 153.277 51.3887C152.862 51.8685 152.507 52.4915 152.214 53.2578L151.247 52.9141L152.794 48.5098ZM166.146 49.0146H178.328L179.735 52.957L178.79 53.3115C178.554 52.667 178.296 52.1621 178.017 51.7969C177.737 51.4245 177.401 51.1094 177.007 50.8516C176.62 50.5938 176.226 50.4219 175.825 50.3359C175.431 50.25 174.715 50.207 173.677 50.207H170.046V55.6963H171.851C172.517 55.6963 173.018 55.5853 173.354 55.3633C173.698 55.1341 173.935 54.8512 174.063 54.5146C174.164 54.264 174.214 53.8271 174.214 53.2041V52.957H175.267V59.5312H174.214V58.9619C174.214 58.4606 174.174 58.099 174.096 57.877C174.024 57.6549 173.888 57.4473 173.688 57.2539C173.487 57.0534 173.269 56.9173 173.032 56.8457C172.803 56.7741 172.409 56.7383 171.851 56.7383H170.046V61.6152C170.046 62.1237 170.067 62.4352 170.11 62.5498C170.16 62.6572 170.239 62.736 170.347 62.7861C170.454 62.8363 170.748 62.8613 171.228 62.8613H173.473C174.726 62.8613 175.703 62.7109 176.405 62.4102C177.114 62.1094 177.737 61.6475 178.274 61.0244C178.697 60.5374 179.102 59.8499 179.488 58.9619L180.466 59.3057L178.79 64H166.146V63.0977H166.576C167.077 63.0977 167.389 63.0654 167.511 63.001C167.697 62.9079 167.84 62.7575 167.94 62.5498C168.012 62.4066 168.048 62.0951 168.048 61.6152V51.3027C168.048 50.8372 168.001 50.5257 167.908 50.3682C167.815 50.2106 167.654 50.0889 167.425 50.0029C167.303 49.9528 166.877 49.9277 166.146 49.9277V49.0146Z" fill="black"/>
</g>
<defs>
<clipPath id="clip0_116_12">
<rect width="276" height="119" fill="white"/>
</clipPath>
</defs>
</svg>
