<svg width="46" height="46" viewBox="0 0 46 46" fill="none" xmlns="http://www.w3.org/2000/svg">
<path d="M32.5834 3.83333H13.4167C8.12398 3.83333 3.83337 8.12393 3.83337 13.4167V32.5833C3.83337 37.8761 8.12398 42.1667 13.4167 42.1667H32.5834C37.8761 42.1667 42.1667 37.8761 42.1667 32.5833V13.4167C42.1667 8.12393 37.8761 3.83333 32.5834 3.83333Z" stroke="black" stroke-width="2" stroke-linecap="round" stroke-linejoin="round"/>
<path d="M30.6667 21.7925C30.9032 23.3876 30.6308 25.0167 29.888 26.4481C29.1453 27.8795 27.9702 29.0402 26.5298 29.7652C25.0894 30.4902 23.457 30.7426 21.8649 30.4864C20.2728 30.2302 18.802 29.4785 17.6618 28.3382C16.5215 27.198 15.7698 25.7272 15.5136 24.1351C15.2574 22.543 15.5098 20.9106 16.2348 19.4702C16.9598 18.0298 18.1205 16.8547 19.5519 16.112C20.9833 15.3693 22.6124 15.0968 24.2075 15.3333C25.8346 15.5746 27.341 16.3328 28.5041 17.4959C29.6672 18.659 30.4254 20.1654 30.6667 21.7925Z" stroke="black" stroke-width="2" stroke-linecap="round" stroke-linejoin="round"/>
<path d="M33.5416 12.4583H33.5608" stroke="black" stroke-width="2" stroke-linecap="round" stroke-linejoin="round"/>
</svg>
