<svg width="231" height="73" viewBox="0 0 231 73" fill="none" xmlns="http://www.w3.org/2000/svg">
<path d="M1.60156 10.7539H15.9961C17.819 10.7539 19.3294 10.9427 20.5273 11.3203C21.7383 11.6849 22.7734 12.2448 23.6328 13C24.5052 13.7552 25.1758 14.6536 25.6445 15.6953C26.1133 16.724 26.3477 17.8177 26.3477 18.9766C26.3477 21.3073 25.4492 23.2604 23.6523 24.8359C21.8685 26.4115 19.401 27.1992 16.25 27.1992H11.6016V32.2969C11.6016 32.9349 11.6471 33.3385 11.7383 33.5078C11.8555 33.7552 12.0312 33.9375 12.2656 34.0547C12.513 34.1719 12.9232 34.2305 13.4961 34.2305H14.8828V38H1.60156V34.2305H2.51953C3.32682 34.2305 3.86068 34.1719 4.12109 34.0547C4.38151 33.9375 4.57031 33.7552 4.6875 33.5078C4.80469 33.2474 4.86328 32.7201 4.86328 31.9258V16.9453C4.86328 16.112 4.8112 15.5651 4.70703 15.3047C4.60286 15.0312 4.43359 14.8359 4.19922 14.7188C3.97786 14.5885 3.54818 14.5234 2.91016 14.5234H1.60156V10.7539ZM11.6016 15.207V22.9414H13.9258C15.3451 22.9414 16.3867 22.7982 17.0508 22.5117C17.7148 22.2122 18.2487 21.763 18.6523 21.1641C19.056 20.5521 19.2578 19.8294 19.2578 18.9961C19.2578 17.7461 18.776 16.7565 17.8125 16.0273C17.0964 15.4805 16.0352 15.207 14.6289 15.207H11.6016ZM27.4414 18.5078L36.5625 18.332V31.0078C36.5625 31.9062 36.6146 32.5052 36.7188 32.8047C36.8359 33.1042 37.0378 33.3516 37.3242 33.5469C37.6237 33.7292 37.9948 33.8203 38.4375 33.8203C39.0885 33.8203 39.7786 33.6641 40.5078 33.3516C40.7943 33.2214 41.556 32.7591 42.793 31.9648V24.3477C42.793 23.6836 42.7409 23.2279 42.6367 22.9805C42.5326 22.7331 42.3828 22.5573 42.1875 22.4531C41.9922 22.3359 41.6146 22.2773 41.0547 22.2773H39.9219V18.5078L49.0625 18.332V32.3164C49.0625 33.0456 49.1016 33.5078 49.1797 33.7031C49.2708 33.8854 49.4076 34.0221 49.5898 34.1133C49.7852 34.1914 50.2409 34.2305 50.957 34.2305H51.9922V38L43.418 38.2344V35.9297C42.2721 36.776 41.1198 37.4141 39.9609 37.8438C38.8021 38.2604 37.6367 38.4688 36.4648 38.4688C35.5273 38.4688 34.6615 38.3125 33.8672 38C33.0859 37.7005 32.4284 37.2969 31.8945 36.7891C31.3607 36.2682 30.9635 35.6628 30.7031 34.9727C30.4427 34.2826 30.3125 33.3971 30.3125 32.3164V24.2695C30.3125 23.5273 30.2669 23.0586 30.1758 22.8633C30.0977 22.668 29.9609 22.5247 29.7656 22.4336C29.5703 22.3294 29.1536 22.2773 28.5156 22.2773H27.4414V18.5078ZM62.7344 18.0391V20.207C64.2188 19.2956 65.3516 18.7096 66.1328 18.4492C66.9271 18.1758 67.7734 18.0391 68.6719 18.0391C70.9505 18.0391 72.806 18.8789 74.2383 20.5586C75.8789 22.4857 76.6992 24.9466 76.6992 27.9414C76.6992 30.806 75.9831 33.2018 74.5508 35.1289C72.9102 37.3555 70.7096 38.4688 67.9492 38.4688C67.0638 38.4688 66.2891 38.3646 65.625 38.1562C64.9609 37.9609 64.2383 37.5964 63.457 37.0625V40.9883C63.457 41.7695 63.4961 42.2383 63.5742 42.3945C63.6654 42.5898 63.8086 42.7266 64.0039 42.8047C64.2122 42.8958 64.7201 42.9414 65.5273 42.9414H66.4453V46.7109H54.2969V42.9414H54.9609C55.8594 42.9414 56.3997 42.9023 56.582 42.8242C56.7773 42.7591 56.9271 42.6094 57.0312 42.375C57.1484 42.1536 57.207 41.6914 57.207 40.9883V23.4883H54.2969V19.6992C55.7031 19.5299 56.901 19.3216 57.8906 19.0742C58.8802 18.8268 59.8828 18.4818 60.8984 18.0391H62.7344ZM63.457 24.1328V30.5C63.457 31.5026 63.5482 32.2188 63.7305 32.6484C63.9258 33.0651 64.2513 33.4102 64.707 33.6836C65.1758 33.944 65.7096 34.0742 66.3086 34.0742C67.3633 34.0742 68.2357 33.5859 68.9258 32.6094C69.6289 31.6328 69.9805 30.1484 69.9805 28.1562C69.9805 26.3073 69.6745 24.9401 69.0625 24.0547C68.4635 23.1562 67.7214 22.707 66.8359 22.707C65.8203 22.707 64.694 23.1823 63.457 24.1328ZM88.3594 18.0391V20.207C89.8438 19.2956 90.9766 18.7096 91.7578 18.4492C92.5521 18.1758 93.3984 18.0391 94.2969 18.0391C96.5755 18.0391 98.431 18.8789 99.8633 20.5586C101.504 22.4857 102.324 24.9466 102.324 27.9414C102.324 30.806 101.608 33.2018 100.176 35.1289C98.5352 37.3555 96.3346 38.4688 93.5742 38.4688C92.6888 38.4688 91.9141 38.3646 91.25 38.1562C90.5859 37.9609 89.8633 37.5964 89.082 37.0625V40.9883C89.082 41.7695 89.1211 42.2383 89.1992 42.3945C89.2904 42.5898 89.4336 42.7266 89.6289 42.8047C89.8372 42.8958 90.3451 42.9414 91.1523 42.9414H92.0703V46.7109H79.9219V42.9414H80.5859C81.4844 42.9414 82.0247 42.9023 82.207 42.8242C82.4023 42.7591 82.5521 42.6094 82.6562 42.375C82.7734 42.1536 82.832 41.6914 82.832 40.9883V23.4883H79.9219V19.6992C81.3281 19.5299 82.526 19.3216 83.5156 19.0742C84.5052 18.8268 85.5078 18.4818 86.5234 18.0391H88.3594ZM89.082 24.1328V30.5C89.082 31.5026 89.1732 32.2188 89.3555 32.6484C89.5508 33.0651 89.8763 33.4102 90.332 33.6836C90.8008 33.944 91.3346 34.0742 91.9336 34.0742C92.9883 34.0742 93.8607 33.5859 94.5508 32.6094C95.2539 31.6328 95.6055 30.1484 95.6055 28.1562C95.6055 26.3073 95.2995 24.9401 94.6875 24.0547C94.0885 23.1562 93.3464 22.707 92.4609 22.707C91.4453 22.707 90.319 23.1823 89.082 24.1328ZM111.562 9.32812C112.552 9.32812 113.392 9.67969 114.082 10.3828C114.785 11.0729 115.137 11.9128 115.137 12.9023C115.137 13.9049 114.785 14.7578 114.082 15.4609C113.392 16.151 112.552 16.4961 111.562 16.4961C110.573 16.4961 109.727 16.151 109.023 15.4609C108.333 14.7578 107.988 13.9115 107.988 12.9219C107.988 11.9453 108.346 11.1055 109.062 10.4023C109.779 9.6862 110.612 9.32812 111.562 9.32812ZM114.727 18.0391V32.4727C114.727 33.1628 114.766 33.5859 114.844 33.7422C114.922 33.8984 115.059 34.0221 115.254 34.1133C115.462 34.1914 115.918 34.2305 116.621 34.2305H117.676V38H105.605V34.2305H106.641C107.318 34.2305 107.747 34.1979 107.93 34.1328C108.125 34.0547 108.268 33.931 108.359 33.7617C108.451 33.5924 108.496 33.2539 108.496 32.7461V23.4297H105.605V19.7578C106.634 19.7057 107.617 19.5951 108.555 19.4258C109.505 19.2565 110.352 19.0547 111.094 18.8203C111.576 18.6641 112.168 18.4036 112.871 18.0391H114.727ZM137.637 30.7734L140.312 33.4688C138.776 35.2266 137.207 36.5026 135.605 37.2969C134.017 38.0781 132.298 38.4688 130.449 38.4688C127.48 38.4688 124.98 37.4661 122.949 35.4609C120.918 33.4427 119.902 31.0078 119.902 28.1562C119.902 26.2812 120.358 24.569 121.27 23.0195C122.181 21.457 123.444 20.2396 125.059 19.3672C126.673 18.4818 128.503 18.0391 130.547 18.0391C131.849 18.0391 133.034 18.2279 134.102 18.6055C135.169 18.9831 136.1 19.5234 136.895 20.2266C137.702 20.9297 138.346 21.7826 138.828 22.7852C139.323 23.7747 139.661 24.8034 139.844 25.8711C139.922 26.4049 139.961 27.2513 139.961 28.4102H126.816C126.842 30.0638 127.324 31.4049 128.262 32.4336C129.212 33.4492 130.371 33.957 131.738 33.957C132.611 33.957 133.561 33.6966 134.59 33.1758C135.618 32.6419 136.634 31.8411 137.637 30.7734ZM133.73 25.1289C133.639 24.3477 133.451 23.7357 133.164 23.293C132.891 22.8372 132.513 22.4792 132.031 22.2188C131.562 21.9453 131.068 21.8086 130.547 21.8086C130 21.8086 129.473 21.9453 128.965 22.2188C128.457 22.4922 128.047 22.8633 127.734 23.332C127.435 23.8008 127.24 24.3997 127.148 25.1289H133.73ZM156.426 18.5078H158.984L160.566 23.9375L156.875 25.4219C156.172 24.2891 155.286 23.4036 154.219 22.7656C153.164 22.1146 152.116 21.7891 151.074 21.7891C150.384 21.7891 149.87 21.9062 149.531 22.1406C149.193 22.375 149.023 22.6549 149.023 22.9805C149.023 23.2539 149.141 23.5078 149.375 23.7422C149.622 23.9766 150.124 24.224 150.879 24.4844L156.25 26.3984C157.201 26.737 158.112 27.1602 158.984 27.668C159.857 28.1758 160.508 28.8008 160.938 29.543C161.38 30.2721 161.602 31.1315 161.602 32.1211C161.602 33.8919 160.924 35.3438 159.57 36.4766C157.982 37.8047 156.003 38.4688 153.633 38.4688C151.602 38.4688 149.831 37.9544 148.32 36.9258L147.773 38H145.176L142.773 31.5938L146.465 30.0312C147.389 31.4766 148.529 32.6159 149.883 33.4492C151.237 34.2695 152.48 34.6797 153.613 34.6797C154.316 34.6797 154.909 34.5169 155.391 34.1914C155.755 33.931 155.938 33.625 155.938 33.2734C155.938 32.974 155.794 32.6875 155.508 32.4141C155.221 32.1406 154.59 31.8346 153.613 31.4961L149.395 30.0312C147.064 29.2109 145.475 28.3385 144.629 27.4141C143.796 26.4766 143.379 25.3698 143.379 24.0938C143.379 22.4531 144.036 21.0729 145.352 19.9531C146.849 18.6771 148.698 18.0391 150.898 18.0391C152.852 18.0391 154.525 18.4818 155.918 19.3672L156.426 18.5078Z" fill="black"/>
<path d="M1.06348 53.0146H8.79785C10.266 53.0146 11.376 53.1686 12.1279 53.4766C12.8799 53.7773 13.4564 54.2178 13.8574 54.7979C14.2656 55.3708 14.4697 56.0368 14.4697 56.7959C14.4697 57.5765 14.2728 58.2712 13.8789 58.8799C13.485 59.4814 12.9157 59.9577 12.1709 60.3086C11.4333 60.6523 10.4521 60.8314 9.22754 60.8457L13.1807 65.6797C13.5029 66.0807 13.7142 66.3278 13.8145 66.4209C14.0651 66.6429 14.3265 66.8112 14.5986 66.9258C14.8779 67.0404 15.1895 67.0977 15.5332 67.0977H15.8018V68H12.3857L6.88574 60.8457H4.96289V65.4648C4.96289 65.9805 4.98079 66.3027 5.0166 66.4316C5.09538 66.6751 5.2207 66.847 5.39258 66.9473C5.57161 67.0475 5.91536 67.0977 6.42383 67.0977H6.81055V68H1.06348V67.0977H1.5791C1.96582 67.0977 2.22363 67.0726 2.35254 67.0225C2.48861 66.9723 2.60677 66.8864 2.70703 66.7646C2.81445 66.6357 2.88965 66.4746 2.93262 66.2812C2.94694 66.2025 2.95768 65.8408 2.96484 65.1963V55.3779C2.96484 54.9482 2.92188 54.6403 2.83594 54.4541C2.75 54.2679 2.62826 54.1354 2.4707 54.0566C2.32031 53.9707 2.05534 53.9277 1.67578 53.9277H1.06348V53.0146ZM4.96289 54.1855V59.8252H8.0459C9.09147 59.8252 9.82552 59.7607 10.248 59.6318C10.8496 59.46 11.3223 59.1449 11.666 58.6865C12.0169 58.2282 12.1924 57.6445 12.1924 56.9355C12.1924 56.334 12.0671 55.8291 11.8164 55.4209C11.5658 55.0055 11.222 54.6976 10.7852 54.4971C10.3555 54.2894 9.71094 54.1855 8.85156 54.1855H4.96289ZM25.8457 65.2285L26.5332 65.7871C26.0104 66.4102 25.502 66.9043 25.0078 67.2695C24.5208 67.6348 24.0589 67.889 23.6221 68.0322C23.1852 68.1826 22.6732 68.2578 22.0859 68.2578C21.0332 68.2578 20.138 68.043 19.4004 67.6133C18.5553 67.1191 17.9072 66.4746 17.4561 65.6797C17.0049 64.8848 16.7793 63.9466 16.7793 62.8652C16.7793 61.7337 16.9977 60.7669 17.4346 59.9648C17.8714 59.1628 18.4801 58.5326 19.2607 58.0742C20.0485 57.6087 20.958 57.376 21.9893 57.376C22.7555 57.376 23.4215 57.4977 23.9873 57.7412C24.5531 57.9775 25.0329 58.3392 25.4268 58.8262C25.8206 59.306 26.1071 59.8574 26.2861 60.4805C26.3864 60.8457 26.4437 61.3184 26.458 61.8984H18.8633C18.8418 62.2493 18.8311 62.5107 18.8311 62.6826C18.8311 63.585 18.9886 64.3906 19.3037 65.0996C19.6188 65.8014 20.0342 66.3206 20.5498 66.6572C21.0726 66.9867 21.6634 67.1514 22.3223 67.1514C22.8809 67.1514 23.4215 67.0225 23.9443 66.7646C24.4671 66.4997 25.1009 65.9876 25.8457 65.2285ZM24.4707 60.8887C24.3633 60.2298 24.2093 59.7428 24.0088 59.4277C23.8154 59.1126 23.5361 58.862 23.1709 58.6758C22.8128 58.4896 22.4082 58.3965 21.957 58.3965C21.5059 58.3965 21.0833 58.4896 20.6895 58.6758C20.2956 58.862 19.9661 59.1198 19.7012 59.4492C19.4434 59.7786 19.2178 60.2585 19.0244 60.8887H24.4707ZM35.374 57.6338H36.126L37.0928 60.9209L36.126 61.2432C35.7393 60.3623 35.195 59.6712 34.4932 59.1699C33.7985 58.6615 33.0931 58.4072 32.377 58.4072C31.8255 58.4072 31.3779 58.5433 31.0342 58.8154C30.6904 59.0804 30.5186 59.3883 30.5186 59.7393C30.5186 60.0687 30.6439 60.3516 30.8945 60.5879C31.138 60.8314 31.6859 61.1071 32.5381 61.415L34.6328 62.1562C35.8145 62.5788 36.6201 63.0299 37.0498 63.5098C37.4723 63.9967 37.6836 64.5482 37.6836 65.1641C37.6836 65.6868 37.526 66.1917 37.2109 66.6787C36.8958 67.1585 36.4375 67.5417 35.8359 67.8281C35.2415 68.1146 34.5576 68.2578 33.7842 68.2578C32.5811 68.2578 31.5498 67.9141 30.6904 67.2266L30.4648 68H29.7021L28.3594 64.4873L29.3369 64.1006C29.9886 65.1318 30.6045 65.8623 31.1846 66.292C31.9938 66.9007 32.8675 67.2051 33.8057 67.2051C34.4287 67.2051 34.9408 67.0404 35.3418 66.7109C35.7428 66.3743 35.9434 66.002 35.9434 65.5938C35.9434 65.2572 35.818 64.9492 35.5674 64.6699C35.3096 64.3978 34.8154 64.1328 34.085 63.875L31.6035 62.9727C30.5365 62.5859 29.7952 62.1634 29.3799 61.7051C28.9645 61.2467 28.7568 60.7204 28.7568 60.126C28.7568 59.4027 29.0934 58.7653 29.7666 58.2139C30.4469 57.6553 31.3099 57.376 32.3555 57.376C32.8997 57.376 33.3867 57.4476 33.8164 57.5908C34.2461 57.7269 34.6686 57.9561 35.084 58.2783L35.374 57.6338ZM49.0488 65.0029L49.7363 65.5615C48.39 67.359 46.7751 68.2578 44.8916 68.2578C43.4235 68.2578 42.1846 67.735 41.1748 66.6895C40.165 65.6439 39.6602 64.3441 39.6602 62.79C39.6602 61.7516 39.8929 60.8206 40.3584 59.9971C40.8311 59.1663 41.4827 58.5218 42.3135 58.0635C43.1514 57.6051 44.111 57.376 45.1924 57.376C46.4242 57.376 47.4518 57.6803 48.2754 58.2891C49.099 58.8906 49.5107 59.4993 49.5107 60.1152C49.5107 60.4447 49.4141 60.6989 49.2207 60.8779C49.0273 61.057 48.8089 61.1465 48.5654 61.1465C48.4365 61.1465 48.3112 61.1143 48.1895 61.0498C48.0677 60.9854 47.9424 60.8815 47.8135 60.7383C47.7562 60.6738 47.6523 60.4733 47.502 60.1367C47.3086 59.7214 47.1582 59.4421 47.0508 59.2988C46.8288 59.0124 46.5531 58.7868 46.2236 58.6221C45.9014 58.4574 45.5397 58.375 45.1387 58.375C44.5299 58.375 43.9642 58.5433 43.4414 58.8799C42.9258 59.2165 42.514 59.7142 42.2061 60.373C41.9053 61.0247 41.7549 61.8053 41.7549 62.7148C41.7549 64.1257 42.1309 65.2464 42.8828 66.0771C43.5345 66.7933 44.3115 67.1514 45.2139 67.1514C45.6292 67.1514 46.0482 67.0833 46.4707 66.9473C46.9004 66.804 47.305 66.5964 47.6846 66.3242C47.9639 66.1309 48.4186 65.6904 49.0488 65.0029ZM50.4238 57.6338L54.4951 57.4727V64.3906C54.4951 64.9993 54.5775 65.4827 54.7422 65.8408C54.9141 66.1989 55.1719 66.4782 55.5156 66.6787C55.8665 66.8721 56.2747 66.9688 56.7402 66.9688C57.3132 66.9688 57.9613 66.8148 58.6846 66.5068C59.415 66.1989 60.1419 65.7406 60.8652 65.1318V60.126C60.8652 59.596 60.8258 59.2487 60.7471 59.084C60.6683 58.9193 60.5286 58.7868 60.3281 58.6865C60.1276 58.5863 59.8125 58.5361 59.3828 58.5361H58.5986V57.6338L62.6699 57.4727V65.4863C62.6699 66.002 62.7129 66.36 62.7988 66.5605C62.8848 66.7539 63.0101 66.8936 63.1748 66.9795C63.3467 67.0583 63.6868 67.0977 64.1953 67.0977H64.5283V68L60.9619 68.1826V66.1953C59.9808 66.9759 59.125 67.5166 58.3945 67.8174C57.6641 68.111 56.9229 68.2578 56.1709 68.2578C55.6123 68.2578 55.1253 68.1826 54.71 68.0322C54.3018 67.8818 53.9401 67.6562 53.625 67.3555C53.3171 67.0547 53.0807 66.693 52.916 66.2705C52.7513 65.848 52.6689 65.3968 52.6689 64.917V60.0293C52.6689 59.5924 52.6296 59.2881 52.5508 59.1162C52.472 58.9372 52.3395 58.7975 52.1533 58.6973C51.9743 58.5898 51.7272 58.5361 51.4121 58.5361H50.4238V57.6338ZM75.1738 65.2285L75.8613 65.7871C75.3385 66.4102 74.8301 66.9043 74.3359 67.2695C73.849 67.6348 73.387 67.889 72.9502 68.0322C72.5133 68.1826 72.0013 68.2578 71.4141 68.2578C70.3613 68.2578 69.4661 68.043 68.7285 67.6133C67.8835 67.1191 67.2354 66.4746 66.7842 65.6797C66.333 64.8848 66.1074 63.9466 66.1074 62.8652C66.1074 61.7337 66.3258 60.7669 66.7627 59.9648C67.1995 59.1628 67.8083 58.5326 68.5889 58.0742C69.3766 57.6087 70.2861 57.376 71.3174 57.376C72.0837 57.376 72.7497 57.4977 73.3154 57.7412C73.8812 57.9775 74.361 58.3392 74.7549 58.8262C75.1488 59.306 75.4352 59.8574 75.6143 60.4805C75.7145 60.8457 75.7718 61.3184 75.7861 61.8984H68.1914C68.1699 62.2493 68.1592 62.5107 68.1592 62.6826C68.1592 63.585 68.3167 64.3906 68.6318 65.0996C68.9469 65.8014 69.3623 66.3206 69.8779 66.6572C70.4007 66.9867 70.9915 67.1514 71.6504 67.1514C72.209 67.1514 72.7497 67.0225 73.2725 66.7646C73.7952 66.4997 74.429 65.9876 75.1738 65.2285ZM73.7988 60.8887C73.6914 60.2298 73.5374 59.7428 73.3369 59.4277C73.1436 59.1126 72.8643 58.862 72.499 58.6758C72.141 58.4896 71.7363 58.3965 71.2852 58.3965C70.834 58.3965 70.4115 58.4896 70.0176 58.6758C69.6237 58.862 69.2943 59.1198 69.0293 59.4492C68.7715 59.7786 68.5459 60.2585 68.3525 60.8887H73.7988ZM96.6582 53.0146H97.4316L98.7959 58.0098L97.7969 58.2891C97.2598 57.1361 96.8516 56.3626 96.5723 55.9688C96.1139 55.3314 95.541 54.8265 94.8535 54.4541C94.1732 54.0817 93.4212 53.8955 92.5977 53.8955C91.6309 53.8955 90.7393 54.1569 89.9229 54.6797C89.1136 55.1953 88.4548 55.9544 87.9463 56.957C87.445 57.9596 87.1943 59.0876 87.1943 60.3408C87.1943 61.6299 87.4486 62.7793 87.957 63.7891C88.4727 64.7988 89.1673 65.5758 90.041 66.1201C90.9147 66.6644 91.8564 66.9365 92.8662 66.9365C93.8187 66.9365 94.7926 66.6644 95.7881 66.1201C96.7835 65.5758 97.6465 64.8132 98.377 63.832L99.2363 64.4229C98.7923 65.0817 98.3125 65.6403 97.7969 66.0986C96.9805 66.8363 96.1318 67.3805 95.251 67.7314C94.3701 68.0824 93.4033 68.2578 92.3506 68.2578C90.0231 68.2578 88.1325 67.3949 86.6787 65.6689C85.4756 64.2367 84.874 62.5322 84.874 60.5557C84.874 59.1019 85.207 57.7878 85.873 56.6133C86.5391 55.4316 87.4557 54.4935 88.623 53.7988C89.7975 53.1042 91.0615 52.7568 92.415 52.7568C93.1383 52.7568 93.8079 52.8571 94.4238 53.0576C95.0469 53.251 95.6771 53.5661 96.3145 54.0029L96.6582 53.0146ZM109.957 65.2285L110.645 65.7871C110.122 66.4102 109.613 66.9043 109.119 67.2695C108.632 67.6348 108.17 67.889 107.733 68.0322C107.297 68.1826 106.785 68.2578 106.197 68.2578C105.145 68.2578 104.249 68.043 103.512 67.6133C102.667 67.1191 102.019 66.4746 101.567 65.6797C101.116 64.8848 100.891 63.9466 100.891 62.8652C100.891 61.7337 101.109 60.7669 101.546 59.9648C101.983 59.1628 102.591 58.5326 103.372 58.0742C104.16 57.6087 105.069 57.376 106.101 57.376C106.867 57.376 107.533 57.4977 108.099 57.7412C108.664 57.9775 109.144 58.3392 109.538 58.8262C109.932 59.306 110.218 59.8574 110.397 60.4805C110.498 60.8457 110.555 61.3184 110.569 61.8984H102.975C102.953 62.2493 102.942 62.5107 102.942 62.6826C102.942 63.585 103.1 64.3906 103.415 65.0996C103.73 65.8014 104.146 66.3206 104.661 66.6572C105.184 66.9867 105.775 67.1514 106.434 67.1514C106.992 67.1514 107.533 67.0225 108.056 66.7646C108.578 66.4997 109.212 65.9876 109.957 65.2285ZM108.582 60.8887C108.475 60.2298 108.321 59.7428 108.12 59.4277C107.927 59.1126 107.647 58.862 107.282 58.6758C106.924 58.4896 106.52 58.3965 106.068 58.3965C105.617 58.3965 105.195 58.4896 104.801 58.6758C104.407 58.862 104.077 59.1198 103.812 59.4492C103.555 59.7786 103.329 60.2585 103.136 60.8887H108.582ZM112.224 59.1807V58.2783C112.861 58.2067 113.337 58.1208 113.652 58.0205C113.967 57.9202 114.422 57.7054 115.017 57.376H115.79V59.417C116.735 58.6221 117.541 58.085 118.207 57.8057C118.88 57.5192 119.561 57.376 120.248 57.376C120.835 57.376 121.354 57.4762 121.806 57.6768C122.257 57.8701 122.622 58.1351 122.901 58.4717C123.188 58.8083 123.378 59.1914 123.471 59.6211C123.528 59.8861 123.557 60.2871 123.557 60.8242V65.5508C123.557 66.1165 123.596 66.4818 123.675 66.6465C123.761 66.804 123.893 66.9186 124.072 66.9902C124.251 67.0618 124.692 67.0977 125.394 67.0977V68H119.861V67.0977H120.162C120.678 67.0977 121.029 67.0511 121.215 66.958C121.401 66.8649 121.534 66.7288 121.612 66.5498C121.698 66.3708 121.741 66.0055 121.741 65.4541V61.501C121.741 60.6846 121.673 60.1188 121.537 59.8037C121.408 59.4886 121.183 59.2344 120.86 59.041C120.545 58.8405 120.144 58.7402 119.657 58.7402C119.077 58.7402 118.458 58.8906 117.799 59.1914C117.14 59.485 116.503 59.9219 115.887 60.502V65.4541C115.887 66.0127 115.926 66.3851 116.005 66.5713C116.091 66.7575 116.227 66.8971 116.413 66.9902C116.542 67.0618 116.886 67.0977 117.444 67.0977H117.756V68H112.224V67.0977H112.492C113.022 67.0977 113.384 67.0547 113.577 66.9688C113.771 66.8757 113.907 66.7145 113.985 66.4854C114.028 66.3708 114.05 65.9769 114.05 65.3037V59.1807H112.224ZM129.562 53.9814H130.324V57.6338H133.515V58.708H130.324V65.1855C130.324 65.737 130.371 66.1309 130.464 66.3672C130.564 66.6035 130.729 66.7969 130.958 66.9473C131.194 67.0977 131.456 67.1729 131.742 67.1729C132.423 67.1729 133.174 66.8685 133.998 66.2598V67.3018C133.06 67.9391 132.111 68.2578 131.151 68.2578C130.607 68.2578 130.113 68.1361 129.669 67.8926C129.232 67.6491 128.931 67.3626 128.767 67.0332C128.609 66.7038 128.53 66.1309 128.53 65.3145V58.708H126.65V57.8057C127.252 57.6696 127.735 57.4583 128.101 57.1719C128.473 56.8854 128.774 56.513 129.003 56.0547C129.232 55.5964 129.418 54.9053 129.562 53.9814ZM144.289 65.2285L144.977 65.7871C144.454 66.4102 143.945 66.9043 143.451 67.2695C142.964 67.6348 142.502 67.889 142.065 68.0322C141.629 68.1826 141.117 68.2578 140.529 68.2578C139.477 68.2578 138.581 68.043 137.844 67.6133C136.999 67.1191 136.351 66.4746 135.899 65.6797C135.448 64.8848 135.223 63.9466 135.223 62.8652C135.223 61.7337 135.441 60.7669 135.878 59.9648C136.315 59.1628 136.924 58.5326 137.704 58.0742C138.492 57.6087 139.401 57.376 140.433 57.376C141.199 57.376 141.865 57.4977 142.431 57.7412C142.996 57.9775 143.476 58.3392 143.87 58.8262C144.264 59.306 144.55 59.8574 144.729 60.4805C144.83 60.8457 144.887 61.3184 144.901 61.8984H137.307C137.285 62.2493 137.274 62.5107 137.274 62.6826C137.274 63.585 137.432 64.3906 137.747 65.0996C138.062 65.8014 138.478 66.3206 138.993 66.6572C139.516 66.9867 140.107 67.1514 140.766 67.1514C141.324 67.1514 141.865 67.0225 142.388 66.7646C142.91 66.4997 143.544 65.9876 144.289 65.2285ZM142.914 60.8887C142.807 60.2298 142.653 59.7428 142.452 59.4277C142.259 59.1126 141.979 58.862 141.614 58.6758C141.256 58.4896 140.852 58.3965 140.4 58.3965C139.949 58.3965 139.527 58.4896 139.133 58.6758C138.739 58.862 138.41 59.1198 138.145 59.4492C137.887 59.7786 137.661 60.2585 137.468 60.8887H142.914ZM146.523 59.1699V58.2891C147.046 58.2461 147.512 58.1602 147.92 58.0312C148.328 57.8952 148.794 57.6768 149.316 57.376H150.122V59.4062C150.631 58.7832 151.221 58.2891 151.895 57.9238C152.568 57.5586 153.173 57.376 153.71 57.376C154.24 57.376 154.659 57.5013 154.967 57.752C155.275 58.0026 155.429 58.307 155.429 58.665C155.429 58.9229 155.325 59.152 155.117 59.3525C154.917 59.5459 154.673 59.6426 154.387 59.6426C154.258 59.6426 154.147 59.6247 154.054 59.5889C153.961 59.5531 153.825 59.4743 153.646 59.3525C153.252 59.0947 152.922 58.9658 152.657 58.9658C152.299 58.9658 151.905 59.1162 151.476 59.417C150.931 59.8037 150.505 60.1833 150.197 60.5557V65.5078C150.197 65.9375 150.219 66.2311 150.262 66.3887C150.312 66.5391 150.391 66.6715 150.498 66.7861C150.605 66.8936 150.738 66.9723 150.896 67.0225C151.053 67.0726 151.329 67.0977 151.723 67.0977H152.077V68H146.523V67.0977H146.985C147.422 67.0977 147.709 67.0583 147.845 66.9795C148.031 66.8721 148.167 66.7253 148.253 66.5391C148.346 66.3457 148.393 66.002 148.393 65.5078V59.1699H146.523Z" fill="black"/>
</svg>
